<?xml version="1.0" encoding="UTF-8" standalone="no"?>
<!-- Created with Inkscape (http://www.inkscape.org/) -->

<svg
   width="75.020699mm"
   height="67.78318mm"
   viewBox="0 0 75.020699 67.78318"
   version="1.1"
   id="svg1"
   xml:space="preserve"
   xmlns="http://www.w3.org/2000/svg"
   xmlns:svg="http://www.w3.org/2000/svg"><defs
     id="defs1" /><g
     style="fill:none;stroke:currentColor;stroke-width:1.875;stroke-linecap:round;stroke-linejoin:round;stroke-dasharray:none"
     id="g2"
     transform="matrix(1.4111111,0,0,1.4111111,29.486562,10.708749)"><path
       d="M 10.2,18 H 4.774 A 1.5,1.5 0 0 1 3.422,17.03 11,11 0 0 1 3.554,10.543"
       id="path1"
       style="stroke-width:1.875;stroke-dasharray:none" /><path
       d="M 18,10.2 V 4.774 A 1.5,1.5 0 0 0 17.03,3.422 11,11 0 0 0 10.544,3.554"
       id="path2"
       style="stroke-width:1.875;stroke-dasharray:none" /><path
       d="m 18,5 a 4,3 0 0 1 4,3 2,2 0 0 1 -2,2 10,10 0 0 0 -5.139,1.42"
       id="path3"
       style="stroke-width:1.875;stroke-dasharray:none" /><path
       d="m 5,18 a 3,4 0 0 0 3,4 2,2 0 0 0 2,-2 10,10 0 0 1 1.42,-5.14"
       id="path4"
       style="stroke-width:1.875;stroke-dasharray:none" /><path
       d="M 8.709,2.554 A 10,10 0 0 0 2.554,8.709 1.5,1.5 0 0 0 3.23,10.335 l 9.807,5.42 a 2,2 0 0 0 2.718,-2.718 L 10.335,3.23 A 1.5,1.5 0 0 0 8.709,2.554"
       id="path5"
       style="stroke-width:1.875;stroke-dasharray:none" /></g><g
     style="fill:none;stroke:currentColor;stroke-width:0.731147;stroke-linecap:round;stroke-linejoin:round;stroke-dasharray:none"
     id="g3"
     transform="matrix(3.6187415,0,0,3.6187415,-5.9145299,-9.5333007)"><path
       d="m 20,5 a 2,2 0 0 1 2,2 v 7 a 2,2 0 0 1 -2,2 H 9 A 2,2 0 0 1 7,14 V 5 A 2,2 0 0 1 9,3 h 2.5 a 1.5,1.5 0 0 1 1.2,0.6 l 0.6,0.8 A 1.5,1.5 0 0 0 14.5,5 Z"
       id="path1-0"
       style="stroke-width:0.731147;stroke-dasharray:none" /><path
       d="M 3,8.268 A 2,2 0 0 0 2,10.006 V 19 a 2,2 0 0 0 2,2 h 11 a 2,2 0 0 0 1.732,-1"
       id="path2-2"
       style="stroke-width:0.731147;stroke-dasharray:none" /></g></svg>
